<?xml version="1.0" encoding="UTF-8"?>
<svg id="Capa_1" data-name="Capa 1" xmlns="http://www.w3.org/2000/svg" viewBox="0 0 312.51 288.77">
  <defs>
    <style>
      .cls-1 {
        fill: #b03f3a;
      }

      .cls-2 {
        fill: none;
        stroke: #b3403c;
        stroke-miterlimit: 10;
        stroke-width: 6px;
      }
    </style>
  </defs>
  <rect class="cls-2" x="30.03" y="32.55" width="255.97" height="226.72" rx="28.41" ry="28.41"/>
  <path class="cls-1" d="M193.04,191.02c2.43-.85,3.55-3.27,2.7-5.56-.92-2.47-3.1-4.14-6.03-4.13l-83.37.3c-5.31.02-10.11-.06-15.01-1.85-2.66-.97-4.52-3.47-5.42-6.15l-10.66-31.83c-2.53-7.56-4.64-14.9-5.5-22.82-.59-5.44,5.55-6.98,11.37-7.36l34.85-2.29,75.69-5.29,13.71-.79c1.43-.08,2.28-1.15,2.43-2.53.69-6.4,5.15-11.46,10.99-13.49.62-1.84,1.54-3.66,3.43-4.4l17.34-6.77c2.71-1.06,5.57,1.02,6.45,3.35s0,5.64-2.64,6.7l-16.53,6.66c-1.78.81-3.59.78-5.33-.26-3.57.78-6.31,3.45-7.19,7.07l-3.9,15.99-16.21,59c-.99,3.6,5.62,3.24,7.03,9.67.81,3.68.06,7.3-2.75,9.61-3.18,2.61-7.32,2.72-11.43,3.16,3.81,5.28,3.05,11.91-1.4,16.02s-11.18,4.1-15.72,0-5.32-10.76-1.41-15.84l-42.51.05c3.67,5.05,2.87,11.71-1.43,15.69s-11.15,4.18-15.67.25-5.45-10.83-1.71-15.84l-10.15.06c-1.67.01-2.94-.89-3.14-2.45-.13-.98.82-2.87,2.46-2.87l88.5-.06c2.93,0,5.35-.02,8.17-1ZM202.16,124.91l3.98-16.4-18.75.95-3.82,16.95,18.59-1.5ZM179.35,126.77l3.75-17.19c-7.95.31-15.81.65-24.05,1.4l-1.38,17.57,21.68-1.77ZM151.73,129c1.22-.12,1.85-.82,1.93-1.8l1.33-16.06-26.1,1.71,1.61,17.82,21.23-1.67ZM107.97,132.42l18.55-1.42-1.62-17.83-23.1,1.55,4.09,16.25c.22.89.85,1.61,2.09,1.45ZM79.25,134.12l23-1.32-4.55-17.27c-.91-.93-2.17-.96-3.4-.64-5.52.29-10.84.4-16.25,1.47-2.17.4-3.67,2.29-3.17,4.57.99,4.5,2.25,8.92,4.36,13.2ZM178.53,151.75l15.96-.12,6.62-22.54-16.53,1.21c-1.05.08-1.94.56-2.15,1.65l-3.89,19.81ZM155.95,152.53l18.15-.26,4.42-21.41-18.86,1.38c-1.42.1-2.4,1.08-2.49,2.45l-1.21,17.83ZM151.77,153.19l1.46-20.36-22.4,1.72,1.53,18.7,19.41-.07ZM128.31,153.7l-1.37-18.81-19.78,1.53,3.64,17.31,17.52-.03ZM88.15,154.82l18.65-.61-3.71-17.52-23.08,1.34,4.93,14.81c.41,1.33,1.46,2.18,3.21,1.99ZM188.27,175.8l5.06-19.67-13.66.07c-1.36,0-2.39.79-2.73,2.11l-4.37,17.77,15.7-.29ZM168.35,176.1l4.69-19.28-15.92.07c-.96,0-1.68.7-1.66,1.71l-1.25,17.72,14.13-.23ZM150.1,176.48l1.4-19.16h-18.86s1.43,19.07,1.43,19.07l16.03.09ZM129.83,176.42l-1.19-18.5-17.08-.02,4,18.37,14.27.15ZM111.26,176.38l-3.62-17.83h-20.99s4.62,12.11,4.62,12.11c.98,3.14,3.55,4.76,6.78,4.95l13.22.77ZM114.45,197.99c-3.82,1.26-5.38,5.34-4.07,8.82,1.22,3.25,4.96,4.96,8.21,3.92,3.68-1.17,5.46-4.83,4.44-8.35s-4.66-5.69-8.58-4.39ZM175.78,197.95c-3.97,1.25-5.54,5.4-4.31,8.66,1.3,3.44,4.92,5.05,8.08,4.19,3.87-1.06,5.66-4.92,4.7-8.36s-4.67-5.68-8.46-4.49Z"/>
</svg>