<?xml version="1.0" encoding="UTF-8"?>
<svg id="Capa_1" data-name="Capa 1" xmlns="http://www.w3.org/2000/svg" viewBox="0 0 188.43 180.77">
  <defs>
    <style>
      .cls-1 {
        fill: #b1403c;
      }
    </style>
  </defs>
  <path class="cls-1" d="M79.67,107.94c2.31-15.87,15.84-26.56,30.78-25.91,15.2.66,28.34,12.98,28.39,28.85l.09,32.1c.01,4.27-2.98,7.2-6.68,7.48-4.13.31-7.62-2.89-7.63-7.46l-.11-32.69c-.03-8.07-7.82-13.9-15.06-13.95-8.09-.06-15.61,6.04-15.63,14.57l-.03,15.1c-.03,13.18-9.69,23.81-22.68,24.42-11.92.56-24.46-8.47-24.46-21.78V44.2c0-13.22,12.73-22.13,24.72-21.61,13.01.76,22.96,11.59,22.31,25l-16.72,50.36c-1.39,4.19-4.43,5.89-8.58,5.23-3.7-.59-6.58-4.66-5.15-9.06l15.69-48.39c1.62-5-5.37-9.14-9.3-8.84-5.3.4-8.83,4.46-8.83,10.09l-.04,78.98c0,5.56,3.77,9.91,8.76,10.14,5.79.27,9.89-4.12,9.96-10.1l.21-18.06Z"/>
  <path class="cls-1" d="M156.31,136.5c4.1-1.17,7.73.83,8.89,4.6,1.09,3.54-.56,7.5-4.56,9.05-3.41,1.32-7.36-.84-8.98-4.53-1.45-3.31.71-8,4.65-9.12Z"/>
</svg>