<?xml version="1.0" encoding="UTF-8"?>
<svg id="Capa_1" data-name="Capa 1" xmlns="http://www.w3.org/2000/svg" viewBox="0 0 188.43 180.77">
  <defs>
    <style>
      .cls-1 {
        fill: #b1403c;
      }
    </style>
  </defs>
  <path class="cls-1" d="M149.58,158.74l-111.61-.09c-6.96,0-12.11-6.04-12.11-12.79l.11-112.19c0-5.99,5.58-11.59,11.58-11.59l113-.04c5.85,0,11.92,5.15,11.93,11.25l.07,113.34c0,6.99-6.06,12.12-12.98,12.12ZM137.16,47.74l.02,16.77c-4.52.04-8.87-.18-13.28.31-3.55.51-5.63,3.12-5.88,6.67l-.09,14.19h18.5s-2.32,18.61-2.32,18.61l-16.18.04v41.95s32.25,0,32.25,0l-.03-111.84H38.34s-.02,111.83-.02,111.83l60.21.02v-41.95s-16.32-.01-16.32-.01v-18.64s16.31,0,16.31,0l.07-17.01c.45-2.77.69-5.39,1.82-7.9,2.44-6.35,7.53-10.92,14.12-12.66,4.15-1.26,8.37-1.12,12.72-.93,3.31.14,6.42-.07,9.92.56Z"/>
</svg>