<?xml version="1.0" encoding="UTF-8"?>
<svg id="Capa_1" data-name="Capa 1" xmlns="http://www.w3.org/2000/svg" viewBox="0 0 188.43 180.77">
  <defs>
    <style>
      .cls-1 {
        fill: #b1403c;
      }
    </style>
  </defs>
  <path class="cls-1" d="M124.88,163.42l-62.8-.12c-22.05-.41-40.54-18.72-40.84-40.83V58.13c0-21.98,18.8-40.51,40.78-40.78h64.35c22.15,0,40.82,18.96,40.81,41.07l-.02,64.02c0,22.75-19.61,41.03-42.29,40.98ZM154.13,120.99l.07-60.55c.02-16.83-13.25-30.15-30.13-30.1l-61.74.19c-15.75.31-28.1,13.76-28.08,29.3l.06,61.54c.01,15.56,12.91,28.79,28.58,28.78l62.91-.03c15.7,0,28.31-13.49,28.33-29.12Z"/>
  <path class="cls-1" d="M91.1,52.86c20.88-1.73,38.87,13.89,40.55,34.38,1.69,20.67-13.75,38.84-34.42,40.52-20.54,1.67-38.65-13.6-40.46-34.16-1.82-20.54,13.39-39,34.33-40.74ZM90.81,66.19c-13.56,1.92-22.7,14.55-20.71,27.74,1.99,13.16,14.3,22.37,27.49,20.51,13.23-1.87,22.63-14.23,20.74-27.51-1.87-13.08-14.02-22.64-27.52-20.73Z"/>
  <path class="cls-1" d="M131.51,42.69c4.89-1.02,9.46,2.26,10.35,6.92s-2.06,9.34-7,10.27c-4.48.85-9.13-2.05-10.12-6.71-.98-4.63,1.67-9.41,6.78-10.48Z"/>
</svg>