<?xml version="1.0" encoding="UTF-8"?>
<svg id="Capa_1" data-name="Capa 1" xmlns="http://www.w3.org/2000/svg" viewBox="0 0 312.51 288.77">
  <defs>
    <style>
      .cls-1 {
        fill: none;
        stroke: #b3403c;
        stroke-miterlimit: 10;
        stroke-width: 6px;
      }

      .cls-2 {
        fill: #b1403c;
      }
    </style>
  </defs>
  <rect class="cls-1" x="29.15" y="31.02" width="255.97" height="226.72" rx="28.41" ry="28.41"/>
  <path class="cls-2" d="M205.04,208.46c.94,1.66.41,3.41-1,4.27s-3.34.5-4.22-1.05l-31.36-55.53c-20.77,9.51-45.22.61-55.25-19.51-10.15-20.37-2.33-45.04,17.55-55.89,19.95-10.89,44.92-3.97,56.49,15.53,11.56,19.48,5.6,44.67-13.43,56.98l31.22,55.22ZM148.2,81.84c-20.07,1.53-34.82,19.1-33.18,38.88s18.89,34.5,38.65,33c19.83-1.51,34.71-18.8,33.23-38.61s-18.68-34.79-38.7-33.26Z"/>
</svg>